<svg width="140" height="140" viewBox="0 0 140 140" fill="none" xmlns="http://www.w3.org/2000/svg">
<g clip-path="url(#clip0_1113_3963)">
<path d="M121.338 69.9854C121.338 98.3069 98.3069 121.338 70 121.338C41.6931 121.338 18.6472 98.3069 18.6472 70C18.6472 41.6931 41.6931 18.6472 70 18.6472C98.3069 18.6472 121.338 41.6785 121.338 69.9854Z" fill="black"/>
<path fill-rule="evenodd" clip-rule="evenodd" d="M0 70C0 31.405 31.405 0 70 0C108.595 0 140 31.405 140 70C140 108.595 108.595 140 70 140C31.405 140 0 108.595 0 70ZM132.693 70C132.693 35.4238 104.562 7.30689 70 7.30689C35.4238 7.30689 7.30689 35.4238 7.30689 70C7.30689 104.562 35.4238 132.693 70 132.693C104.576 132.693 132.693 104.562 132.693 70Z" fill="black"/>
<path fill-rule="evenodd" clip-rule="evenodd" d="M63.2917 68.0314C64.3789 65.4241 67.3739 64.1919 69.9811 65.2791L102.643 78.8992C105.25 79.9864 106.482 82.9813 105.395 85.5886C104.308 88.1958 101.313 89.428 98.7057 88.3408L66.0439 74.7208C63.4367 73.6335 62.2045 70.6386 63.2917 68.0314Z" fill="white"/>
<path fill-rule="evenodd" clip-rule="evenodd" d="M68.0125 30.7328C70.8374 30.7328 73.1274 33.0228 73.1274 35.8476V70C73.1274 72.8249 70.8374 75.1148 68.0125 75.1148C65.1877 75.1148 62.8977 72.8249 62.8977 70V35.8476C62.8977 33.0228 65.1877 30.7328 68.0125 30.7328Z" fill="white"/>
</g>
<defs>
<clipPath id="clip0_1113_3963">
<rect width="140" height="140" fill="white"/>
</clipPath>
</defs>
</svg>
