<svg width="140" height="140" viewBox="0 0 140 140" fill="none" xmlns="http://www.w3.org/2000/svg">
<g clip-path="url(#clip0_1113_3966)">
<path fill-rule="evenodd" clip-rule="evenodd" d="M129.073 112.569C135.38 114.376 140 120.188 140 127.073V132.673H56.0194V127.073C56.0194 120.188 60.6391 114.376 66.9464 112.569C67.4466 106.696 72.3654 102.093 78.3691 102.093H117.65C123.64 102.093 128.571 106.694 129.073 112.569ZM70.6322 118.035C65.9998 118.273 62.2832 122.002 62.0636 126.639H133.956C133.736 122.002 130.02 118.273 125.387 118.035H70.6322ZM122.851 111.988C122.177 109.753 120.101 108.127 117.65 108.127H78.3691C75.9108 108.127 73.8392 109.752 73.1677 111.988H122.851Z" fill="black"/>
<path fill-rule="evenodd" clip-rule="evenodd" d="M37.4122 9.43206C33.879 6.93919 28.9764 7.78154 26.4829 11.3327L26.484 11.3311L28.9508 13.0677L26.4813 11.3349L6.6824 39.4588L9.14756 41.1981L6.68058 39.4614L6.68153 39.4601C4.1892 42.9939 5.03265 47.8969 8.58527 50.3897L8.58802 50.3916C9.94715 51.343 11.5183 51.8179 13.0938 51.8179C15.5418 51.8179 17.9772 50.6621 19.5075 48.4854L19.5065 48.4868L17.0401 46.7495L19.5084 48.484L39.3207 20.3584C41.8284 16.8041 40.9252 11.9107 37.4122 9.43206ZM31.4207 14.8007C31.9929 13.9851 33.123 13.7905 33.9336 14.3624C34.7649 14.949 34.9479 16.0895 34.3904 16.8797L14.5715 45.0148C14.2191 45.5163 13.6622 45.784 13.0938 45.784C12.7389 45.784 12.3797 45.6799 12.0497 45.4494C11.2353 44.8768 11.0412 43.7475 11.6127 42.9374L31.4207 14.8007ZM39.3207 20.3584L36.8555 18.6191L39.322 20.3565L39.3207 20.3584Z" fill="black"/>
<path fill-rule="evenodd" clip-rule="evenodd" d="M103.363 56.4962C99.8293 54.0034 94.9268 54.8457 92.4333 58.3968L92.4344 58.3953L94.9012 60.1318L92.4317 58.3991L72.6328 86.523L75.0979 88.2623L72.6309 86.5256C70.1398 90.0594 70.9835 94.9614 74.5356 97.4538L74.5384 97.4558C75.8975 98.4072 77.4686 98.8821 79.0441 98.8821C81.4922 98.8821 83.9276 97.7263 85.4578 95.5495L85.4568 95.551L82.9905 93.8136L85.4588 95.5482L105.271 67.4225C107.779 63.8683 106.876 58.9749 103.363 56.4962ZM97.3711 61.8649C97.9433 61.0493 99.0734 60.8547 99.8839 61.4265C100.715 62.0131 100.898 63.1537 100.341 63.9439L80.5219 92.079C80.1695 92.5804 79.6126 92.8481 79.0441 92.8481C78.6893 92.8481 78.33 92.7441 78.0001 92.5135C77.1856 91.941 76.9915 90.8117 77.5631 90.0016L97.3711 61.8649ZM105.271 67.4225L102.806 65.6832L105.272 67.4207L105.271 67.4225Z" fill="black"/>
<path d="M45.7138 76.4042C45.8672 76.1863 46.0001 75.9601 46.1129 75.7279C47.3801 76.4721 48.6277 77.1625 49.8409 77.8012C54.4287 80.2165 58.5993 81.9312 61.6285 83.0443C63.1448 83.6014 64.3795 84.0094 65.2431 84.2803C65.675 84.4157 66.0145 84.517 66.2502 84.5856C66.3681 84.6199 66.4602 84.6461 66.5249 84.6642L66.6014 84.6855L66.624 84.6917L66.634 84.6944C66.634 84.6944 66.636 84.6949 67.4234 81.7825L66.636 84.6949L68.6748 85.2462L90.3938 54.3909L89.4284 52.7212C82.884 41.4038 71.8073 33.6806 62.6372 28.8301C58.0171 26.3863 53.7963 24.6275 50.7263 23.4777C49.1895 22.9022 47.9365 22.4776 47.0602 22.1947C46.622 22.0532 46.2776 21.9471 46.0387 21.8752C45.9192 21.8392 45.8261 21.8118 45.7607 21.7928L45.6837 21.7706L45.6612 21.7642L45.6513 21.7614C45.6513 21.7614 45.6494 21.7608 44.8323 24.6651L45.6494 21.7608L43.5942 21.1826L21.8492 52.0747L22.8431 53.7532C26.8894 60.5871 32.4205 66.0818 38.1534 70.4236C38.0361 70.5564 37.9249 70.6969 37.8206 70.8451L8.94337 111.847C8.86684 111.845 8.79006 111.844 8.71304 111.844C3.90096 111.844 0 115.745 0 120.557C0 125.369 3.90096 129.27 8.71304 129.27C13.5251 129.27 17.4261 125.369 17.4261 120.557C17.4261 119.445 17.2178 118.381 16.8381 117.404L45.7138 76.4042Z" fill="black"/>
</g>
<defs>
<clipPath id="clip0_1113_3966">
<rect width="140" height="140" fill="white"/>
</clipPath>
</defs>
</svg>
