<svg width="140" height="140" viewBox="0 0 140 140" fill="none" xmlns="http://www.w3.org/2000/svg">
<path fill-rule="evenodd" clip-rule="evenodd" d="M112.512 23.3849C109.308 17.2149 101.696 14.8122 95.5204 18.0193L12.3856 61.2266C6.2157 64.4305 3.81209 72.0419 7.01889 78.2178C7.01895 78.2179 7.01883 78.2177 7.01889 78.2178L27.481 117.608C30.6848 123.778 38.2957 126.181 44.4715 122.975M44.4715 122.975L127.607 79.7675C127.607 79.7674 127.606 79.7675 127.607 79.7675C133.79 76.5515 136.19 68.9505 132.974 62.7658L112.512 23.3849M117.479 20.8056C112.847 11.8864 101.854 8.42365 92.9411 13.0522L9.80538 56.2599C9.80566 56.2598 9.80509 56.2601 9.80538 56.2599C0.88687 60.8918 -2.57639 71.8845 2.05199 80.7975L22.5141 120.188C22.514 120.188 22.5142 120.188 22.5141 120.188C27.1458 129.107 38.1386 132.57 47.0517 127.942L130.188 84.7334C139.115 80.0913 142.582 69.1109 137.94 60.1844C137.941 60.1847 137.94 60.1842 137.94 60.1844L117.479 20.8056Z" fill="black"/>
<path d="M24.1917 110.257C14.1621 110.257 5.99069 102.097 5.99069 92.0559V48.9377C5.99069 38.9081 14.1509 30.7367 24.1917 30.7367H115.801C125.831 30.7367 134.002 38.8969 134.002 48.9377V92.0559C134.002 102.085 125.842 110.257 115.801 110.257H24.1917Z" fill="black"/>
<path d="M115.812 33.5352C124.319 33.5352 131.215 40.4305 131.215 48.9377V92.0559C131.215 100.563 124.319 107.458 115.812 107.458H24.1917C15.6844 107.458 8.78912 100.563 8.78912 92.0559V48.9377C8.78912 40.4305 15.6844 33.5352 24.1917 33.5352H115.812ZM115.812 27.9383H24.1917C12.6174 27.9383 3.19226 37.3522 3.19226 48.9377V92.0559C3.19226 103.63 12.6062 113.055 24.1917 113.055H115.801C127.375 113.055 136.8 103.641 136.8 92.0559V48.9377C136.8 37.3522 127.387 27.9383 115.812 27.9383Z" fill="white"/>
<path fill-rule="evenodd" clip-rule="evenodd" d="M33.8407 60.0194C33.8407 52.6874 39.7844 46.7437 47.1164 46.7437C54.4484 46.7437 60.3922 52.6874 60.3922 60.0194C60.3922 67.3514 54.4484 73.2952 47.1164 73.2952C39.7844 73.2952 33.8407 67.3514 33.8407 60.0194ZM47.1164 52.3405C42.8755 52.3405 39.4375 55.7785 39.4375 60.0194C39.4375 64.2603 42.8755 67.6983 47.1164 67.6983C51.3573 67.6983 54.7953 64.2603 54.7953 60.0194C54.7953 55.7785 51.3573 52.3405 47.1164 52.3405Z" fill="white"/>
<path d="M34.4073 76.8146C35.8006 76.1953 36.444 74.5702 35.8448 73.1621C35.2396 71.7399 33.5962 71.0776 32.174 71.6828L33.2698 74.2578C32.174 71.6828 32.1703 71.6844 32.1703 71.6844L32.1664 71.6861L32.158 71.6897L32.1394 71.6978L32.0946 71.7178C32.0614 71.7328 32.0216 71.7514 31.9757 71.7736C31.8838 71.8179 31.7672 71.8771 31.6294 71.9527C31.3541 72.1039 30.993 72.3214 30.5761 72.6188C29.7414 73.2142 28.6809 74.131 27.6391 75.4737C25.5253 78.1981 23.632 82.4906 23.632 88.9775C23.632 90.5231 24.8849 91.776 26.4304 91.776C27.976 91.776 29.2289 90.5231 29.2289 88.9775C29.2289 83.6551 30.7552 80.5877 32.0611 78.9046C32.7291 78.0436 33.3785 77.4947 33.8262 77.1753C34.0504 77.0154 34.2237 76.9133 34.3224 76.8591C34.3669 76.8347 34.3959 76.8202 34.4073 76.8146Z" fill="white"/>
<path d="M58.3769 73.1621C58.982 71.7399 60.6255 71.0776 62.0476 71.6828L60.9518 74.2578C62.0476 71.6828 62.0513 71.6844 62.0513 71.6844L62.0553 71.6861L62.0636 71.6897L62.0822 71.6978L62.127 71.7178C62.1602 71.7328 62.2 71.7514 62.2459 71.7736C62.3378 71.8179 62.4544 71.8771 62.5922 71.9527C62.8676 72.1039 63.2286 72.3214 63.6456 72.6188C64.4802 73.2142 65.5407 74.131 66.5825 75.4737C68.6963 78.1981 70.5896 82.4906 70.5896 88.9775C70.5896 90.5231 69.3367 91.776 67.7912 91.776C66.2457 91.776 64.9928 90.5231 64.9928 88.9775C64.9928 83.6551 63.4664 80.5877 62.1605 78.9046C61.4925 78.0436 60.8432 77.4947 60.3954 77.1753C60.1712 77.0154 59.9979 76.9133 59.8992 76.8591C59.8547 76.8347 59.8257 76.8202 59.8144 76.8146C58.4211 76.1953 57.7776 74.5702 58.3769 73.1621Z" fill="white"/>
<path d="M79.3878 52.016C79.3878 50.4705 80.6407 49.2176 82.1863 49.2176H113.383C114.929 49.2176 116.182 50.4705 116.182 52.016C116.182 53.5615 114.929 54.8144 113.383 54.8144H82.1863C80.6407 54.8144 79.3878 53.5615 79.3878 52.016Z" fill="white"/>
<path d="M79.3878 70.4968C79.3878 68.9513 80.6407 67.6984 82.1863 67.6984H113.383C114.929 67.6984 116.182 68.9513 116.182 70.4968C116.182 72.0424 114.929 73.2953 113.383 73.2953H82.1863C80.6407 73.2953 79.3878 72.0424 79.3878 70.4968Z" fill="white"/>
<path d="M79.3878 88.9777C79.3878 87.4321 80.6407 86.1792 82.1863 86.1792H113.383C114.929 86.1792 116.182 87.4321 116.182 88.9777C116.182 90.5232 114.929 91.7761 113.383 91.7761H82.1863C80.6407 91.7761 79.3878 90.5232 79.3878 88.9777Z" fill="white"/>
</svg>
