<svg width="140" height="140" viewBox="0 0 140 140" fill="none" xmlns="http://www.w3.org/2000/svg">
<g clip-path="url(#clip0_1113_3964)">
<path d="M74.4223 20.4839C74.4223 18.0075 72.4148 16 69.9384 16C67.462 16 65.4545 18.0075 65.4545 20.4839V119.209H37.9342C36.3864 119.209 35.1317 120.464 35.1317 122.012C35.1317 123.559 36.3864 124.814 37.9342 124.814H101.943C103.49 124.814 104.745 123.559 104.745 122.012C104.745 120.464 103.49 119.209 101.943 119.209H74.4223V20.4839Z" fill="black"/>
<path d="M69.9383 68.608H21.8704L0 49.327L21.8704 30.046H69.9383V68.608Z" fill="black"/>
<path d="M70.0729 87.8888H118.13L140 68.6079L118.13 49.3269H70.0729V87.8888Z" fill="black"/>
</g>
<defs>
<clipPath id="clip0_1113_3964">
<rect width="140" height="140" fill="white"/>
</clipPath>
</defs>
</svg>
