<svg width="140" height="140" viewBox="0 0 140 140" fill="none" xmlns="http://www.w3.org/2000/svg">
<path d="M76.7395 2.9411C72.8344 -0.980368 66.7258 -0.980368 62.8207 2.9411L13.7558 52.212C10.7201 55.2605 9 59.5021 9 63.9394V123.861C9 132.774 15.803 140 24.195 140H39.3901C47.7821 140 54.5851 132.774 54.5851 123.861V96.9625C54.5851 93.9917 56.8528 91.5831 59.6501 91.5831H79.9101C82.7074 91.5831 84.9751 93.9917 84.9751 96.9625V123.861C84.9751 132.774 91.7784 140 100.17 140H115.365C123.757 140 130.56 132.774 130.56 123.861V63.9394C130.56 59.5021 128.84 55.2605 125.804 52.212L76.7395 2.9411Z" fill="black"/>
</svg>
