<svg width="140" height="140" viewBox="0 0 140 140" fill="none" xmlns="http://www.w3.org/2000/svg">
<path d="M70 0C31.3428 0 0 31.3428 0 70C0 108.657 31.3428 140 70 140C108.657 140 140 108.657 140 70C140 31.3428 108.657 0 70 0ZM95.9935 70.7924L56.6185 94.293C56.3366 94.4642 55.9776 94.4727 55.6872 94.3015C55.4053 94.1391 55.2259 93.8361 55.2259 93.4984V69.9975V46.4967C55.2259 46.1636 55.4053 45.856 55.6872 45.6933C55.9776 45.5268 56.3366 45.5353 56.6185 45.7018L95.9935 69.207C96.2754 69.3673 96.4422 69.6768 96.4422 69.9973C96.4422 70.3246 96.2757 70.6281 95.9935 70.7924Z" fill="white"/>
</svg>
