<svg width="37" height="37" viewBox="0 0 37 37" fill="none" xmlns="http://www.w3.org/2000/svg">
<path d="M0.706758 32.8808C-0.235586 33.8232 -0.235586 35.3508 0.706758 36.2932C1.6491 37.2356 3.17698 37.2356 4.11932 36.2932L0.706758 32.8808ZM20.2062 20.2062C21.1486 19.2638 21.1486 17.7362 20.2062 16.7938C19.2638 15.8515 17.7362 15.8515 16.7938 16.7938L20.2062 20.2062ZM16.7938 16.7938C15.8515 17.7362 15.8515 19.2638 16.7938 20.2062C17.7362 21.1486 19.2638 21.1486 20.2062 20.2062L16.7938 16.7938ZM36.2932 4.11933C37.2356 3.17698 37.2356 1.6491 36.2932 0.706758C35.3508 -0.235586 33.8232 -0.235586 32.8808 0.706758L36.2932 4.11933ZM20.2062 16.7938C19.2638 15.8515 17.7362 15.8515 16.7938 16.7938C15.8515 17.7362 15.8515 19.2638 16.7938 20.2062L20.2062 16.7938ZM32.8808 36.2932C33.8232 37.2356 35.3508 37.2356 36.2932 36.2932C37.2356 35.3508 37.2356 33.8232 36.2932 32.8808L32.8808 36.2932ZM16.7938 20.2062C17.7362 21.1486 19.2638 21.1486 20.2062 20.2062C21.1486 19.2638 21.1486 17.7362 20.2062 16.7938L16.7938 20.2062ZM4.11932 0.706758C3.17698 -0.235586 1.6491 -0.235586 0.706758 0.706758C-0.235586 1.6491 -0.235586 3.17698 0.706758 4.11933L4.11932 0.706758ZM4.11932 36.2932L20.2062 20.2062L16.7938 16.7938L0.706758 32.8808L4.11932 36.2932ZM20.2062 20.2062L36.2932 4.11933L32.8808 0.706758L16.7938 16.7938L20.2062 20.2062ZM16.7938 20.2062L32.8808 36.2932L36.2932 32.8808L20.2062 16.7938L16.7938 20.2062ZM20.2062 16.7938L4.11932 0.706758L0.706758 4.11933L16.7938 20.2062L20.2062 16.7938Z" fill="black"/>
</svg>
