<svg width="140" height="140" viewBox="0 0 140 140" fill="none" xmlns="http://www.w3.org/2000/svg">
<path fill-rule="evenodd" clip-rule="evenodd" d="M0 15V55.8333C7.3638 55.8333 13.3333 49.8638 13.3333 42.5V28.3333H35C42.3638 28.3333 48.3333 22.3638 48.3333 15H0ZM91.6667 15C91.6667 22.3638 97.6362 28.3333 105 28.3333H126.667V42.5C126.667 49.8638 132.636 55.8333 140 55.8333V15H91.6667ZM140 84.1667C132.636 84.1667 126.667 90.1362 126.667 97.5V111.667H105C97.6362 111.667 91.6667 117.636 91.6667 125H140V84.1667ZM48.3333 125C48.3333 117.636 42.3638 111.667 35 111.667H13.3333V97.5C13.3333 90.1362 7.3638 84.1667 0 84.1667V125H48.3333Z" fill="white"/>
</svg>
