<svg width="140" height="140" viewBox="0 0 140 140" xmlns="http://www.w3.org/2000/svg">
<path d="M62.9242 18L41.6968 89.0108L33.3574 57.1697C43.2972 57.1697 51.2996 59.9495 57.3646 65.509C63.5981 71.0686 66.7148 78.8183 66.7148 88.7581C66.7148 98.5295 63.5138 106.363 57.1119 112.26C50.8785 118.156 42.9603 121.105 33.3574 121.105C23.7545 121.105 15.7521 118.156 9.35018 112.26C3.11673 106.363 0 98.5295 0 88.7581C0 86.0626 0.168472 83.367 0.505415 80.6715C1.01083 77.9759 1.93742 74.6907 3.2852 70.8159C4.80144 66.941 6.99158 61.8869 9.8556 55.6534L27.5451 18H62.9242ZM136.209 18L114.982 89.0108L106.643 57.1697C116.582 57.1697 124.585 59.9495 130.65 65.509C136.883 71.0686 140 78.8183 140 88.7581C140 98.5295 136.799 106.363 130.397 112.26C124.164 118.156 116.245 121.105 106.643 121.105C97.0397 121.105 89.0373 118.156 82.6354 112.26C76.4019 106.363 73.2852 98.5295 73.2852 88.7581C73.2852 86.0626 73.4537 83.367 73.7906 80.6715C74.296 77.9759 75.2226 74.6907 76.5704 70.8159C78.0866 66.941 80.2768 61.8869 83.1408 55.6534L100.83 18H136.209Z"/>
</svg>
