<svg width="140" height="140" viewBox="0 0 140 140" fill="none" xmlns="http://www.w3.org/2000/svg">
<g clip-path="url(#clip0_1341_1893)">
<path fill-rule="evenodd" clip-rule="evenodd" d="M82.3544 8V140.432H65.8835L32.9418 105.117V43.3153L65.8835 8H82.3544ZM121.915 27.3907C133.585 39.9012 140 56.5347 140 74.2188C140 91.903 133.585 108.528 121.915 121.038L116.093 114.796C126.206 103.963 131.764 89.5457 131.764 74.2189C131.764 58.8832 126.206 44.4745 116.093 33.6327L121.915 27.3907ZM24.7064 43.3153V105.117H12.3532C5.51775 105.117 0 99.2018 0 91.8738V56.5585C0 49.2307 5.51775 43.3153 12.3532 43.3153H24.7064ZM104.471 46.1361C111.455 53.7201 115.293 63.6967 115.293 74.2118C115.293 84.7358 111.455 94.7123 104.471 102.296L98.6161 96.1073C104.06 90.1743 107.057 82.3961 107.057 74.2118C107.057 66.0363 104.06 58.2581 98.6161 52.3251L104.471 46.1361Z" fill="white"/>
</g>
<defs>
<clipPath id="clip0_1341_1893">
<rect width="140" height="140" fill="white"/>
</clipPath>
</defs>
</svg>
