<svg width="140" height="140" viewBox="0 0 140 140" fill="none" xmlns="http://www.w3.org/2000/svg">
<path fill-rule="evenodd" clip-rule="evenodd" d="M70 140C108.66 140 140 108.66 140 70C140 31.3401 108.66 0 70 0C31.3401 0 0 31.3401 0 70C0 108.66 31.3401 140 70 140ZM98 50C100.209 50 102 48.2091 102 46C102 43.7909 100.209 42 98 42H42C39.7909 42 38 43.7909 38 46C38 48.2091 39.7909 50 42 50H98ZM98.2843 87.5464L72.8284 62.0905C71.2663 60.5284 68.7337 60.5284 67.1716 62.0905L41.7157 87.5464C40.1536 89.1085 40.1536 91.6411 41.7157 93.2032C43.2778 94.7653 45.8105 94.7653 47.3726 93.2032L70 70.5758L92.6274 93.2032C94.1895 94.7653 96.7222 94.7653 98.2843 93.2032C99.8464 91.6411 99.8464 89.1085 98.2843 87.5464Z" fill="white"/>
</svg>
