<svg width="997" height="319" viewBox="0 0 997 319" fill="none" xmlns="http://www.w3.org/2000/svg">
<path fill-rule="evenodd" clip-rule="evenodd" d="M230.757 0.717041L237.917 5.65391C240.191 7.2213 240.763 10.3349 239.196 12.6084C237.629 14.8819 234.515 15.4543 232.241 13.8869L231.365 13.283L230.516 13.9991C228.405 15.779 225.25 15.5103 223.47 13.399C221.691 11.2877 221.959 8.13332 224.071 6.35346L230.757 0.717041ZM263.11 29.0955C264.678 26.822 267.791 26.2496 270.065 27.817L278.102 33.3578C280.375 34.9251 280.948 38.0388 279.38 40.3123C277.813 42.5858 274.699 43.1582 272.426 41.5908L264.389 36.05C262.115 34.4826 261.543 31.369 263.11 29.0955ZM200.975 32.3634C202.755 34.4747 202.486 37.6291 200.375 39.409L192.839 45.7614C190.728 47.5413 187.574 47.2726 185.794 45.1613C184.014 43.05 184.282 39.8956 186.394 38.1157L193.929 31.7633C196.04 29.9834 199.195 30.2521 200.975 32.3634ZM995.579 38.0151C997.366 40.1204 997.108 43.2756 995.003 45.0626L991.02 48.4437C988.914 50.2307 985.759 49.9726 983.972 47.8673C982.185 45.762 982.443 42.6067 984.548 40.8198L988.532 37.4386C990.637 35.6517 993.792 35.9098 995.579 38.0151ZM303.294 56.7993C304.862 54.5258 307.976 53.9534 310.249 55.5208L318.286 61.0616C320.559 62.629 321.132 65.7426 319.564 68.0161C317.997 70.2896 314.883 70.862 312.61 69.2946L304.573 63.7539C302.299 62.1865 301.727 59.0728 303.294 56.7993ZM163.298 64.1257C165.078 66.237 164.809 69.3914 162.698 71.1712L155.162 77.5237C153.051 79.3036 149.897 79.0349 148.117 76.9236C146.337 74.8123 146.606 71.6579 148.717 69.878L156.252 63.5256C158.364 61.7457 161.518 62.0144 163.298 64.1257ZM959.728 68.4454C961.515 70.5507 961.257 73.7059 959.151 75.4929L951.185 82.2552C949.079 84.0421 945.924 83.7841 944.137 81.6788C942.35 79.5735 942.608 76.4182 944.713 74.6312L952.68 67.8689C954.786 66.082 957.941 66.3401 959.728 68.4454ZM343.479 84.5032C345.046 82.2297 348.16 81.6573 350.433 83.2247L358.47 88.7655C360.744 90.3328 361.316 93.4465 359.749 95.72C358.181 97.9935 355.068 98.5659 352.794 96.9985L344.757 91.4577C342.484 89.8903 341.911 86.7767 343.479 84.5032ZM125.621 95.888C127.401 97.9993 127.132 101.154 125.021 102.934L117.486 109.286C115.374 111.066 112.22 110.797 110.44 108.686C108.66 106.575 108.929 103.42 111.04 101.64L118.575 95.2879C120.687 93.508 123.841 93.7767 125.621 95.888ZM919.893 102.257C921.68 104.362 921.422 107.517 919.316 109.304L911.349 116.067C909.244 117.854 906.089 117.596 904.302 115.49C902.515 113.385 902.773 110.23 904.878 108.443L912.845 101.68C914.951 99.8935 918.106 100.152 919.893 102.257ZM383.663 112.207C385.23 109.934 388.344 109.361 390.617 110.929L398.654 116.469C400.928 118.037 401.5 121.15 399.933 123.424C398.365 125.697 395.252 126.27 392.978 124.702L384.941 119.162C382.668 117.594 382.095 114.481 383.663 112.207ZM87.9442 127.65C89.724 129.762 89.4554 132.916 87.3441 134.696L79.8087 141.048C77.6974 142.828 74.543 142.559 72.7631 140.448C70.9833 138.337 71.252 135.182 73.3633 133.403L80.8986 127.05C83.0099 125.27 86.1643 125.539 87.9442 127.65ZM880.058 136.068C881.845 138.174 881.587 141.329 879.481 143.116L871.514 149.878C869.409 151.665 866.254 151.407 864.467 149.302C862.68 147.196 862.938 144.041 865.043 142.254L873.01 135.492C875.116 133.705 878.271 133.963 880.058 136.068ZM423.847 139.911C425.414 137.637 428.528 137.065 430.802 138.632L438.838 144.173C441.112 145.741 441.684 148.854 440.117 151.128C438.55 153.401 435.436 153.974 433.162 152.406L425.126 146.865C422.852 145.298 422.28 142.184 423.847 139.911ZM50.2673 159.413C52.0472 161.524 51.7785 164.678 49.6672 166.458L42.1319 172.811C40.0206 174.59 36.8662 174.322 35.0863 172.21C33.3064 170.099 33.5751 166.945 35.6864 165.165L43.2218 158.812C45.3331 157.033 48.4875 157.301 50.2673 159.413ZM464.031 167.615C465.599 165.341 468.712 164.769 470.986 166.336L479.023 171.877C481.296 173.444 481.869 176.558 480.301 178.832C478.734 181.105 475.62 181.677 473.347 180.11L465.31 174.569C463.036 173.002 462.464 169.888 464.031 167.615ZM840.223 169.88C842.01 171.985 841.752 175.14 839.646 176.927L831.679 183.69C829.574 185.477 826.419 185.219 824.632 183.113C822.845 181.008 823.103 177.853 825.208 176.066L833.175 169.303C835.281 167.516 838.436 167.775 840.223 169.88ZM12.5905 191.175C14.3704 193.286 14.1017 196.441 11.9904 198.22L8.22271 201.397C6.11142 203.176 2.95701 202.908 1.17715 200.797C-0.602706 198.685 -0.334027 195.531 1.77727 193.751L5.54495 190.575C7.65624 188.795 10.8106 189.064 12.5905 191.175ZM504.215 195.319C505.783 193.045 508.897 192.473 511.17 194.04L519.207 199.581C521.48 201.148 522.053 204.262 520.485 206.535C518.918 208.809 515.804 209.381 513.531 207.814L505.494 202.273C503.22 200.706 502.648 197.592 504.215 195.319ZM800.388 203.691C802.175 205.797 801.917 208.952 799.811 210.739L791.844 217.501C789.739 219.288 786.584 219.03 784.797 216.925C783.01 214.819 783.268 211.664 785.373 209.877L793.34 203.115C795.446 201.328 798.601 201.586 800.388 203.691ZM544.4 223.022C545.967 220.749 549.081 220.177 551.354 221.744L559.391 227.285C561.665 228.852 562.237 231.966 560.67 234.239C559.102 236.513 555.989 237.085 553.715 235.518L545.678 229.977C543.405 228.41 542.832 225.296 544.4 223.022ZM760.553 237.503C762.34 239.608 762.082 242.763 759.976 244.55L752.009 251.313C749.904 253.1 746.749 252.841 744.962 250.736C743.175 248.631 743.433 245.476 745.538 243.689L753.505 236.926C755.611 235.139 758.766 235.397 760.553 237.503ZM584.584 250.726C586.151 248.453 589.265 247.88 591.538 249.448L599.575 254.989C601.849 256.556 602.421 259.67 600.854 261.943C599.286 264.217 596.173 264.789 593.899 263.222L585.862 257.681C583.589 256.113 583.016 253 584.584 250.726ZM720.718 271.314C722.505 273.42 722.247 276.575 720.141 278.362L712.174 285.124C710.069 286.911 706.914 286.653 705.127 284.548C703.34 282.442 703.598 279.287 705.703 277.5L713.67 270.738C715.775 268.951 718.931 269.209 720.718 271.314ZM624.768 278.43C626.335 276.157 629.449 275.584 631.723 277.152L639.759 282.692C642.033 284.26 642.605 287.373 641.038 289.647C639.471 291.92 636.357 292.493 634.083 290.925L626.047 285.385C623.773 283.817 623.201 280.704 624.768 278.43ZM680.883 305.126C682.67 307.231 682.412 310.386 680.306 312.173L673.403 318.033L666.231 313.089C663.957 311.521 663.385 308.408 664.952 306.134C666.52 303.861 669.633 303.288 671.907 304.855L672.772 305.452L673.835 304.549C675.94 302.762 679.096 303.02 680.883 305.126Z" fill="white" fill-opacity="0.3"/>
</svg>
