<svg width="1182" height="98" viewBox="0 0 1182 98" fill="none" xmlns="http://www.w3.org/2000/svg">
  <rect y="9" width="9" height="79" rx="4.5" fill="white"/>
  <rect x="17" y="26" width="9" height="45" rx="4.5" fill="white"/>
  <rect x="34" y="13" width="9" height="71" rx="4.5" fill="white"/>
  <rect x="51" y="22" width="9" height="54" rx="4.5" fill="white"/>
  <rect x="68" y="7" width="9" height="84" rx="4.5" fill="white"/>
  <rect x="85" width="9" height="98" rx="4.5" fill="white"/>
  <rect x="102" y="12" width="9" height="74" rx="4.5" fill="white"/>
  <rect x="119" y="5" width="9" height="88" rx="4.5" fill="white"/>
  <rect x="136" y="17" width="9" height="63" rx="4.5" fill="white"/>
  <rect x="153" y="2" width="9" height="93" rx="4.5" fill="white"/>
  <rect x="170" y="28" width="9" height="42" rx="4.5" fill="white"/>
  <rect x="187" y="7" width="9" height="84" rx="4.5" fill="white"/>
  <rect x="204" y="13" width="9" height="71" rx="4.5" fill="white"/>
  <rect x="221" y="5" width="9" height="88" rx="4.5" fill="white"/>
  <rect x="238" y="17" width="9" height="63" rx="4.5" fill="white"/>
  <rect x="255" y="7" width="9" height="84" rx="4.5" fill="white"/>
  <rect x="272" width="9" height="98" rx="4.5" fill="white"/>
  <rect x="289" y="2" width="9" height="93" rx="4.5" fill="white"/>
  <rect x="306" y="9" width="9" height="79" rx="4.5" fill="white"/>
  <rect x="323" y="26" width="9" height="45" rx="4.5" fill="white"/>
  <rect x="340" y="12" width="9" height="74" rx="4.5" fill="white"/>
  <rect x="357" y="22" width="9" height="54" rx="4.5" fill="white"/>
  <rect x="374" y="7" width="9" height="84" rx="4.5" fill="white"/>
  <rect x="391" y="16" width="9" height="66" rx="4.5" fill="white"/>
  <rect x="408" y="5" width="9" height="88" rx="4.5" fill="white"/>
  <rect x="425" y="13" width="9" height="71" rx="4.5" fill="white"/>
  <rect x="442" y="26" width="9" height="45" rx="4.5" fill="white"/>
  <rect x="459" y="9" width="9" height="79" rx="4.5" fill="white"/>
  <rect x="476" y="16" width="9" height="66" rx="4.5" fill="white"/>
  <rect x="493" y="5" width="9" height="88" rx="4.5" fill="white"/>
  <rect x="510" width="9" height="98" rx="4.5" fill="white"/>
  <rect x="527" y="7" width="9" height="84" rx="4.5" fill="white"/>
  <rect x="544" y="12" width="9" height="74" rx="4.5" fill="white"/>
  <rect x="561" y="19" width="9" height="59" rx="4.5" fill="white"/>
  <rect x="578" y="9" width="9" height="79" rx="4.5" fill="white"/>
  <rect x="595" width="9" height="98" rx="4.5" fill="white"/>
  <rect x="612" width="9" height="98" rx="4.5" fill="white"/>
  <rect x="629" y="5" width="9" height="88" rx="4.5" fill="white"/>
  <rect x="646" y="12" width="9" height="74" rx="4.5" fill="white"/>
  <rect x="663" y="28" width="9" height="42" rx="4.5" fill="white"/>
  <rect x="680" y="9" width="9" height="79" rx="4.5" fill="white"/>
  <rect x="697" y="26" width="9" height="45" rx="4.5" fill="white"/>
  <rect x="714" y="13" width="9" height="71" rx="4.5" fill="white"/>
  <rect x="731" y="22" width="9" height="54" rx="4.5" fill="white"/>
  <rect x="748" y="7" width="9" height="84" rx="4.5" fill="white"/>
  <rect x="765" width="9" height="98" rx="4.5" fill="white"/>
  <rect x="782" y="12" width="9" height="74" rx="4.5" fill="white"/>
  <rect x="799" y="5" width="9" height="88" rx="4.5" fill="white"/>
  <rect x="816" y="17" width="9" height="63" rx="4.5" fill="white"/>
  <rect x="833" y="2" width="9" height="93" rx="4.5" fill="white"/>
  <rect x="850" y="28" width="9" height="42" rx="4.5" fill="white"/>
  <rect x="867" y="7" width="9" height="84" rx="4.5" fill="white"/>
  <rect x="884" y="13" width="9" height="71" rx="4.5" fill="white"/>
  <rect x="901" y="5" width="9" height="88" rx="4.5" fill="white"/>
  <rect x="918" y="17" width="9" height="63" rx="4.5" fill="white"/>
  <rect x="935" y="7" width="9" height="84" rx="4.5" fill="white"/>
  <rect x="952" width="9" height="98" rx="4.5" fill="white"/>
  <rect x="969" y="2" width="9" height="93" rx="4.5" fill="white"/>
  <rect x="986" y="9" width="9" height="79" rx="4.5" fill="white"/>
  <rect x="1003" y="26" width="9" height="45" rx="4.5" fill="white"/>
  <rect x="1020" y="12" width="9" height="74" rx="4.5" fill="white"/>
  <rect x="1037" y="22" width="9" height="54" rx="4.5" fill="white"/>
  <rect x="1054" y="7" width="9" height="84" rx="4.5" fill="white"/>
  <rect x="1071" y="16" width="9" height="66" rx="4.5" fill="white"/>
  <rect x="1088" y="5" width="9" height="88" rx="4.5" fill="white"/>
  <rect x="1105" y="13" width="9" height="71" rx="4.5" fill="white"/>
  <rect x="1122" y="26" width="9" height="45" rx="4.5" fill="white"/>
  <rect x="1139" y="9" width="9" height="79" rx="4.5" fill="white"/>
  <rect x="1156" y="16" width="9" height="66" rx="4.5" fill="white"/>
  <rect x="1173" y="5" width="9" height="88" rx="4.5" fill="white"/>
</svg>
